<?xml version="1.0" encoding="UTF-8"?>
<svg version="1.1" xmlns="http://www.w3.org/2000/svg" width="3640" height="894">
<path d="M0 0 C0.99 0 1.98 0 3 0 C4.37189344 4.35504012 5.74098633 8.71094786 7.10766602 13.06762695 C7.57144486 14.54474732 8.03594347 16.02164193 8.5012207 17.49829102 C12.86770911 31.35918909 12.86770911 31.35918909 14.390625 37.203125 C16.84025903 46.39635614 19.97264689 55.40098277 22.9375 64.4375 C23.60659209 66.48408288 24.27553575 68.53071429 24.94433594 70.57739258 C28.11698312 80.27502313 31.31197579 89.96488034 34.55078125 99.640625 C34.96256874 100.8714254 34.96256874 100.8714254 35.38267517 102.12709045 C36.65995171 105.94190414 37.94145853 109.75521462 39.23022461 113.56616211 C41.43175927 120.10007284 43.50337516 126.63044592 45.26123047 133.30053711 C46.72542104 138.65068752 48.47472225 143.91281037 50.1875 149.1875 C50.39298462 149.82329987 50.59846924 150.45909973 50.81018066 151.11416626 C53.82053728 160.42758112 56.89922453 169.71763757 60.00390625 179 C60.35297531 180.0441658 60.70204437 181.0883316 61.06169128 182.16413879 C62.7993341 187.35943302 64.54119793 192.55325547 66.28979492 197.74487305 C70.82286268 211.24103155 75.12840941 224.7897417 78.98339844 238.49658203 C80.20486477 242.70600612 81.54614602 246.86883659 82.90625 251.03515625 C83.32806046 252.33169128 83.32806046 252.33169128 83.75839233 253.65441895 C84.67092795 256.45754903 85.58543345 259.26003195 86.5 262.0625 C87.1290919 263.99405179 87.75816076 265.92561108 88.38720703 267.85717773 C91.27884924 276.72695108 94.18472561 285.59151835 97.1484375 294.4375 C97.38479919 295.14329697 97.62116089 295.84909393 97.86468506 296.57627869 C98.95611036 299.83199832 100.05236012 303.08594929 101.15429688 306.33813477 C101.72374023 308.02894165 101.72374023 308.02894165 102.3046875 309.75390625 C102.63452637 310.72658447 102.96436523 311.6992627 103.30419922 312.70141602 C104 315 104 315 104 317 C213.89 317 323.78 317 437 317 C435.515 318.98 435.515 318.98 434 321 C433.01 321 432.02 321 431 321 C431 321.66 431 322.32 431 323 C429.66162109 324.16992187 429.66162109 324.16992187 427.7734375 325.46875 C427.07863281 325.95214844 426.38382813 326.43554688 425.66796875 326.93359375 C424.91128906 327.45050781 424.15460937 327.96742188 423.375 328.5 C421.79920514 329.59335517 420.2236879 330.68711056 418.6484375 331.78125 C417.85920898 332.32652344 417.06998047 332.87179687 416.25683594 333.43359375 C413.14845987 335.59103002 410.07259967 337.79206284 407 340 C401.90973906 343.64480577 396.80301195 347.26572859 391.6875 350.875 C390.9847998 351.3712085 390.28209961 351.86741699 389.55810547 352.37866211 C385.79327614 355.03560975 382.02307727 357.68457409 378.24609375 360.32421875 C377.47241455 360.86643066 376.69873535 361.40864258 375.90161133 361.96728516 C374.41750296 363.00719551 372.93173899 364.04474829 371.4440918 365.07958984 C370.77418213 365.54961426 370.10427246 366.01963867 369.4140625 366.50390625 C368.8257666 366.91455322 368.2374707 367.3252002 367.63134766 367.74829102 C365.93590359 369.04918023 364.48969089 370.47092708 363 372 C361.93720526 372.83918693 360.85280055 373.65162577 359.75 374.4375 C359.20859375 374.82808594 358.6671875 375.21867187 358.109375 375.62109375 C356.3701413 376.75803726 354.56659757 377.79595183 352.75 378.8046875 C348.66834 381.11079285 344.98379595 383.86283472 341.25 386.6875 C339.94545062 387.67420907 338.63826049 388.65743898 337.328125 389.63671875 C336.7599707 390.06686279 336.19181641 390.49700684 335.60644531 390.94018555 C334 392 334 392 331 393 C331 393.66 331 394.32 331 395 C330.01 395 329.02 395 328 395 C328 395.66 328 396.32 328 397 C326.6015625 398.24584961 326.6015625 398.24584961 324.625 399.65234375 C323.89539063 400.17570312 323.16578125 400.6990625 322.4140625 401.23828125 C321.61742187 401.79902344 320.82078125 402.35976563 320 402.9375 C319.18273437 403.52015625 318.36546875 404.1028125 317.5234375 404.703125 C311.74021119 408.81225948 305.90207986 412.83929209 300.04077148 416.8359375 C294.21425911 420.82027014 288.49575327 424.94577092 282.78344727 429.09155273 C277.69274124 432.78410326 272.57838019 436.44013846 267.4375 440.0625 C266.74237305 440.55282715 266.04724609 441.0431543 265.33105469 441.54833984 C261.77706493 444.05262451 258.21655575 446.54713725 254.6484375 449.03125 C253.20260236 450.04091866 251.75728547 451.05132989 250.3125 452.0625 C249.61358643 452.55145752 248.91467285 453.04041504 248.19458008 453.54418945 C242.75185651 457.38787048 237.50633349 461.44740655 232.3762207 465.69946289 C228.31774166 469 228.31774166 469 225 469 C225 469.66 225 470.32 225 471 C222.75762267 472.61439319 220.52750986 474.1031638 218.1875 475.5625 C217.22360352 476.1802832 217.22360352 476.1802832 216.24023438 476.81054688 C213.52208281 478.53157341 211.06316591 479.9789447 208 481 C208 481.66 208 482.32 208 483 C207.01 483 206.02 483 205 483 C204.67 483.99 204.34 484.98 204 486 C201.65625 487.83984375 201.65625 487.83984375 198.5 489.9375 C197.32087884 490.73067819 196.14253424 491.52501164 194.96484375 492.3203125 C194.3291748 492.74731445 193.69350586 493.17431641 193.03857422 493.61425781 C189.34234456 496.12680866 185.70627201 498.72473826 182.0625 501.3125 C177.41736326 504.61001923 172.75717717 507.86577216 168 511 C168.66 511.33 169.32 511.66 170 512 C170.88211086 514.58032428 171.6558873 517.12387323 172.375 519.75 C172.77750829 521.18261176 173.18119148 522.61489384 173.5859375 524.046875 C173.91960327 525.22757568 173.91960327 525.22757568 174.26000977 526.43212891 C176.74537501 535.0566989 179.50693693 543.59416657 182.26953125 552.1328125 C183.15052742 554.86603616 184.03087083 557.599469 184.91088867 560.33300781 C185.51804456 562.21316886 186.12812892 564.09238644 186.7409668 565.97070312 C187.6336863 568.70966972 188.51514987 571.45203917 189.39453125 574.1953125 C189.80998955 575.45615158 189.80998955 575.45615158 190.23384094 576.74246216 C190.48127548 577.5211264 190.72871002 578.29979065 190.98364258 579.10205078 C191.31529167 580.12578293 191.31529167 580.12578293 191.65364075 581.17019653 C192 583 192 583 191 586 C191.363453 587.90751284 191.363453 587.90751284 192.12402344 589.9296875 C192.39470642 590.71480713 192.6653894 591.49992676 192.9442749 592.30883789 C193.24625793 593.15567139 193.54824097 594.00250488 193.859375 594.875 C194.31694183 596.19455688 194.31694183 596.19455688 194.78375244 597.54077148 C195.76399006 600.36356618 196.75628988 603.18192275 197.75 606 C199.0413995 609.68578956 200.32749989 613.37338752 201.609375 617.0625 C201.91758179 617.94824707 202.22578857 618.83399414 202.54333496 619.74658203 C204.36918872 625.03753601 206.01592029 630.32951276 207.40820312 635.75317383 C208.41268698 639.56681448 209.72501684 643.27004099 211 647 C211.7986192 649.40178103 212.59530182 651.80416053 213.390625 654.20703125 C214.34290088 657.07580316 215.29639429 659.9441699 216.25 662.8125 C216.50378418 663.57612854 216.75756836 664.33975708 217.01904297 665.12652588 C220.298126 674.98582817 223.6158079 684.83104792 226.984375 694.66015625 C227.31866516 695.63638443 227.65295532 696.61261261 227.99737549 697.61842346 C229.6342912 702.39681884 231.27541725 707.17370743 232.92285156 711.94848633 C235.83953448 720.4317606 238.6210336 728.89965405 241.015625 737.54833984 C242.9883295 744.46552641 245.26683123 751.28840414 247.5 758.125 C248.0228289 759.73094322 248.54561449 761.33690053 249.06835938 762.94287109 C252.84071224 774.51619901 256.65766675 786.07473352 260.5 797.625 C260.74903076 798.37477112 260.99806152 799.12454224 261.25463867 799.89703369 C261.9700505 802.04914587 262.68761387 804.20052504 263.40625 806.3515625 C263.62849243 807.01890411 263.85073486 807.68624573 264.07971191 808.37380981 C265.72022043 813.26375182 267.51108576 818.08374236 269.41601562 822.87646484 C270 825 270 825 269 828 C266.50638429 826.79618552 264.31856917 825.54571278 262 824 C262 823.34 262 822.68 262 822 C260.68 821.67 259.36 821.34 258 821 C258 820.34 258 819.68 258 819 C257.29875 818.76539063 256.5975 818.53078125 255.875 818.2890625 C252.49542943 816.77376591 249.84837759 814.6923832 247 812.375 C241.39475052 807.91229956 235.58704381 804.17452945 229.38671875 800.59375 C228.59910156 800.0678125 227.81148437 799.541875 227 799 C227 798.34 227 797.68 227 797 C226.4117041 796.71874268 225.8234082 796.43748535 225.21728516 796.14770508 C223.18246136 795.09444515 221.38874385 793.96129994 219.5234375 792.63671875 C218.86190674 792.16862793 218.20037598 791.70053711 217.51879883 791.21826172 C216.45761841 790.46053467 216.45761841 790.46053467 215.375 789.6875 C214.63080811 789.15914551 213.88661621 788.63079102 213.11987305 788.08642578 C206.14808228 783.12750904 199.21512188 778.1147646 192.28515625 773.09765625 C188.44981791 770.32222866 184.60337921 767.56280638 180.75 764.8125 C180.19787842 764.41724121 179.64575684 764.02198242 179.0769043 763.61474609 C176.07265475 761.46664812 173.05551616 759.33913497 170.0234375 757.23046875 C169.37149414 756.77373779 168.71955078 756.31700684 168.04785156 755.84643555 C166.79062383 754.9660888 165.52968416 754.09101333 164.26464844 753.22192383 C162.80695325 752.19754639 161.3978309 751.1046688 160 750 C160 749.34 160 748.68 160 748 C159.01 748 158.02 748 157 748 C155.83619891 746.84257008 154.67813974 745.67868367 153.55273438 744.48388672 C150.47674901 741.54428938 146.80825714 739.37063856 143.25 737.0625 C141.71354167 736.05338542 140.17708333 735.04427083 138.640625 734.03515625 C136.24111341 732.4605407 133.83709764 730.89629289 131.41601562 729.35498047 C130.59294922 728.82404785 129.76988281 728.29311523 128.921875 727.74609375 C127.79410645 727.02764282 127.79410645 727.02764282 126.64355469 726.29467773 C126.10118164 725.86743408 125.55880859 725.44019043 125 725 C125 724.34 125 723.68 125 723 C124.13217896 722.59273682 124.13217896 722.59273682 123.24682617 722.17724609 C120.99819038 720.99905183 119.08081942 719.68518087 117.05078125 718.1640625 C116.294021 717.60066162 115.53726074 717.03726074 114.75756836 716.45678711 C113.9506958 715.85229736 113.14382324 715.24780762 112.3125 714.625 C106.07212929 709.98658865 99.80398319 705.40139919 93.4375 700.9375 C87.61618153 696.85266209 81.82448665 692.73067943 76.0625 688.5625 C75.31750244 688.02375244 74.57250488 687.48500488 73.80493164 686.92993164 C70.00883495 684.18272945 66.21629517 681.43067984 62.42578125 678.67578125 C60.9090556 677.57524317 59.39213004 676.47498055 57.875 675.375 C56.77321411 674.57497559 56.77321411 674.57497559 55.64916992 673.75878906 C51.90608005 671.05321974 48.13809203 668.39644736 44.3125 665.80859375 C43.19319092 665.0508667 43.19319092 665.0508667 42.05126953 664.27783203 C40.62949555 663.3205191 39.20353829 662.36938206 37.77294922 661.42529297 C36.14761084 660.33298895 34.56815934 659.17291482 33 658 C33 657.34 33 656.68 33 656 C32.42709229 655.73195557 31.85418457 655.46391113 31.26391602 655.18774414 C28.92285443 653.95952624 26.90242979 652.56683037 24.77734375 650.99609375 C23.99166016 650.42052734 23.20597656 649.84496094 22.39648438 649.25195312 C20.75276591 648.03907429 19.10953909 646.82552889 17.46679688 645.61132812 C16.68240234 645.03705078 15.89800781 644.46277344 15.08984375 643.87109375 C14.37691162 643.34443115 13.66397949 642.81776855 12.92944336 642.27514648 C10.92597762 640.83130058 10.92597762 640.83130058 8 640 C8 639.34 8 638.68 8 638 C7.2575 637.71125 6.515 637.4225 5.75 637.125 C3.43099801 636.17631737 1.23067324 635.13440221 -1 634 C-3.75069178 635.93651931 -6.50042994 637.87438842 -9.25 639.8125 C-10.02730469 640.35970703 -10.80460937 640.90691406 -11.60546875 641.47070312 C-12.73662109 642.26831055 -12.73662109 642.26831055 -13.890625 643.08203125 C-14.58188477 643.56905518 -15.27314453 644.0560791 -15.98535156 644.55786133 C-17.39260169 645.56520822 -18.77328655 646.61025167 -20.13183594 647.68237305 C-22 649 -22 649 -24 649 C-24.33 649.99 -24.66 650.98 -25 652 C-26.94788961 653.55951595 -28.87998681 654.97409211 -30.9375 656.375 C-32.21798492 657.26745918 -33.49790517 658.16072893 -34.77734375 659.0546875 C-35.80384033 659.7677002 -35.80384033 659.7677002 -36.85107422 660.49511719 C-40.59887955 663.11968797 -44.29641055 665.81358523 -48 668.5 C-53.32175024 672.34972919 -58.65106 676.18813864 -64 680 C-71.57641145 685.40055941 -79.11539658 690.85261756 -86.65478516 696.3046875 C-89.0230274 698.01664608 -91.39221005 699.72729483 -93.76171875 701.4375 C-94.5393457 701.99888672 -95.31697266 702.56027344 -96.11816406 703.13867188 C-97.64707911 704.24206573 -99.17636743 705.34494257 -100.70605469 706.44726562 C-103.98512427 708.81216152 -107.25818216 711.18323254 -110.50390625 713.59375 C-111.49261719 714.3259375 -112.48132813 715.058125 -113.5 715.8125 C-114.3353125 716.43769531 -115.170625 717.06289063 -116.03125 717.70703125 C-118 719 -118 719 -120 719 C-120.33 719.99 -120.66 720.98 -121 722 C-123 722.66666667 -125 723.33333333 -127 724 C-127.33 724.99 -127.66 725.98 -128 727 C-128.99 727 -129.98 727 -131 727 C-131.33 727.99 -131.66 728.98 -132 730 C-134.15870723 731.57786229 -136.3034145 733.01764037 -138.5625 734.4375 C-144.13466824 738.04247034 -149.52984181 741.79514124 -154.8125 745.8125 C-166.25664902 754.49925981 -177.95192937 762.83703368 -189.65039062 771.17651367 C-194.65444274 774.74617715 -199.64129917 778.33949163 -204.625 781.9375 C-205.39585937 782.49373047 -206.16671875 783.04996094 -206.9609375 783.62304688 C-208.05148438 784.41098633 -208.05148438 784.41098633 -209.1640625 785.21484375 C-210.13013428 785.91275024 -210.13013428 785.91275024 -211.11572266 786.62475586 C-212.4697619 787.61300451 -213.80040154 788.63361272 -215.11474609 789.67407227 C-217 791 -217 791 -219 791 C-219 791.66 -219 792.32 -219 793 C-219.9590625 793.1546875 -219.9590625 793.1546875 -220.9375 793.3125 C-221.618125 793.539375 -222.29875 793.76625 -223 794 C-223.33 794.99 -223.66 795.98 -224 797 C-225.93359375 798.34619141 -225.93359375 798.34619141 -228.4375 799.7265625 C-233.94334588 802.89712973 -238.94489897 806.53760952 -244 810.375 C-245.66338892 811.63714396 -247.32989656 812.89519188 -249 814.1484375 C-249.721875 814.69677246 -250.44375 815.24510742 -251.1875 815.81005859 C-253 817 -253 817 -255 817 C-255.33 817.99 -255.66 818.98 -256 820 C-258.3984375 822.078125 -258.3984375 822.078125 -261.375 824.25 C-262.84066406 825.34054687 -262.84066406 825.34054687 -264.3359375 826.453125 C-265.65464844 827.21882812 -265.65464844 827.21882812 -267 828 C-267.99 827.67 -268.98 827.34 -270 827 C-264.73865683 810.55212316 -259.40776241 794.12965013 -253.9375 777.75 C-253.68569977 776.99570709 -253.43389954 776.24141418 -253.17446899 775.46426392 C-250.78562957 768.310197 -248.39114188 761.15805199 -245.98460388 754.00991821 C-245.35736417 752.1459265 -244.73152295 750.28146437 -244.10571289 748.41699219 C-243.35763406 746.18885853 -242.60705329 743.96156236 -241.85327148 741.73535156 C-240.31256411 737.14329384 -238.85064759 732.56239566 -237.61328125 727.87890625 C-235.46680086 719.82476068 -232.83030502 711.92319374 -230.25 704 C-229.97320404 703.14671112 -229.69640808 702.29342224 -229.41122437 701.41427612 C-224.1464769 685.20382892 -218.57072651 669.10772795 -212.85058594 653.05273438 C-212.5414476 652.1791478 -212.23230927 651.30556122 -211.9138031 650.40550232 C-211.34086413 648.78677156 -210.76381517 647.16948609 -210.18153381 645.55409241 C-208.62882199 641.15669187 -207.48290407 636.8177597 -206.5269165 632.25588989 C-205.62891203 628.41125949 -204.30697539 624.7213895 -203 621 C-202.52067391 619.5956003 -202.04223345 618.190898 -201.56469727 616.78588867 C-201.06557052 615.32981126 -200.56612739 613.87384227 -200.06640625 612.41796875 C-199.49965301 610.76386987 -198.93300717 609.10973419 -198.36645508 607.45556641 C-198.07219635 606.59650696 -197.77793762 605.73744751 -197.47476196 604.85235596 C-192.63890572 590.7260843 -187.82371389 576.59283447 -183.0854187 562.4335022 C-182.57664273 560.91392394 -182.06684302 559.39468799 -181.55593872 557.87582397 C-179.03578017 550.37893534 -176.58626748 542.89515779 -174.6159668 535.22998047 C-174.02540286 533.09196581 -173.31224069 531.06267113 -172.5 529 C-170.27888178 523.323809 -168 517.12839647 -168 511 C-169.67756137 509.53296187 -169.67756137 509.53296187 -171.9140625 508.234375 C-175.25130846 506.11934799 -178.5122497 503.96084718 -181.7109375 501.640625 C-182.48050781 501.08246094 -183.25007812 500.52429688 -184.04296875 499.94921875 C-185.19732422 499.10810547 -185.19732422 499.10810547 -186.375 498.25 C-187.94496821 497.10890116 -189.51526672 495.96825658 -191.0859375 494.828125 C-191.7670459 494.3321582 -192.4481543 493.83619141 -193.14990234 493.32519531 C-194.74345017 492.18376253 -196.3690406 491.08730626 -198 490 C-198 489.34 -198 488.68 -198 488 C-199.32 487.67 -200.64 487.34 -202 487 C-202 486.34 -202 485.68 -202 485 C-202.53238281 484.75765625 -203.06476563 484.5153125 -203.61328125 484.265625 C-206.65076295 482.65491457 -209.37425197 480.72633195 -212.1875 478.75 C-213.34853902 477.93820204 -214.50999912 477.127006 -215.671875 476.31640625 C-216.52168945 475.72303467 -216.52168945 475.72303467 -217.38867188 475.11767578 C-219.55470142 473.61523892 -221.74244779 472.14713506 -223.9375 470.6875 C-224.63617188 470.22214844 -225.33484375 469.75679688 -226.0546875 469.27734375 C-227.32272722 468.44471526 -228.59852541 467.62374855 -229.8828125 466.81640625 C-231.28657165 465.92518242 -232.64928865 464.96974148 -234 464 C-234 463.34 -234 462.68 -234 462 C-234.58539551 461.72091797 -235.17079102 461.44183594 -235.77392578 461.15429688 C-237.86272217 460.07118333 -239.70264701 458.89402167 -241.6171875 457.53125 C-242.299021 457.04793213 -242.98085449 456.56461426 -243.68334961 456.06665039 C-244.40659424 455.54965576 -245.12983887 455.03266113 -245.875 454.5 C-246.63240479 453.96173584 -247.38980957 453.42347168 -248.17016602 452.86889648 C-250.44866959 451.24856881 -252.72447387 449.62450527 -255 448 C-256.19906601 447.14692069 -257.39827188 446.29403791 -258.59765625 445.44140625 C-262.07115251 442.96934645 -265.53706866 440.4868334 -269 438 C-269.67611328 437.51450684 -270.35222656 437.02901367 -271.04882812 436.52880859 C-280.41682553 429.79582587 -289.7300168 422.99503703 -298.9921875 416.1171875 C-304.97373139 411.69820998 -311.06519291 407.46257628 -317.27783203 403.37451172 C-318.88558327 402.29838579 -320.44842798 401.15565364 -322 400 C-322 399.34 -322 398.68 -322 398 C-322.68707031 397.77699219 -323.37414062 397.55398438 -324.08203125 397.32421875 C-327.73045594 395.66850795 -330.61195296 393.33058565 -333.6875 390.8125 C-343.13622429 382.68179979 -343.13622429 382.68179979 -354 377 C-354 376.34 -354 375.68 -354 375 C-354.99 375 -355.98 375 -357 375 C-357 374.34 -357 373.68 -357 373 C-357.87567627 372.58488159 -357.87567627 372.58488159 -358.76904297 372.16137695 C-360.90362539 371.05017006 -362.7536429 369.83489695 -364.6953125 368.41796875 C-365.40204102 367.90468018 -366.10876953 367.3913916 -366.83691406 366.86254883 C-367.59198242 366.30978271 -368.34705078 365.7570166 -369.125 365.1875 C-370.74734752 364.00774606 -372.36974477 362.8280605 -373.9921875 361.6484375 C-374.82202148 361.04354492 -375.65185547 360.43865234 -376.50683594 359.81542969 C-380.41365168 356.97063123 -384.33160925 354.14132314 -388.25 351.3125 C-389.37752686 350.49785278 -389.37752686 350.49785278 -390.52783203 349.66674805 C-395.00890762 346.43085024 -399.49973572 343.20914042 -404 340 C-405.10677615 339.20834076 -406.21354687 338.41667393 -407.3203125 337.625 C-410.16192655 335.59368374 -413.01401658 333.57754504 -415.8671875 331.5625 C-417.5366226 330.37523094 -419.20589498 329.18773304 -420.875 328 C-421.679375 327.43539063 -422.48375 326.87078125 -423.3125 326.2890625 C-424.42238281 325.49628906 -424.42238281 325.49628906 -425.5546875 324.6875 C-426.21968262 324.21699219 -426.88467773 323.74648438 -427.56982422 323.26171875 C-428.04178223 322.84535156 -428.51374023 322.42898438 -429 322 C-429 321.34 -429 320.68 -429 320 C-429.99 320 -430.98 320 -432 320 C-432.99 318.68 -433.98 317.36 -435 316 C-325.44 316 -215.88 316 -103 316 C-93.43597929 288.14593444 -93.43597929 288.14593444 -84.00219727 260.24682617 C-83.52477718 258.82132583 -83.04513656 257.39656798 -82.5637207 255.97241211 C-79.05975951 245.67824779 -79.05975951 245.67824779 -76.47610474 235.12442017 C-76.01574051 233.0702355 -75.42908722 231.14235846 -74.74804688 229.15136719 C-74.47985641 228.36018997 -74.21166595 227.56901276 -73.93534851 226.75386047 C-73.6266835 225.84508652 -73.31801849 224.93631256 -73 224 C-72.25439625 221.7672524 -71.51012461 219.53405972 -70.7668457 217.30053711 C-67.45727539 207.37182617 -64.14770508 197.44311523 -60.83813477 187.5144043 C-60.59656206 186.78967611 -60.35498936 186.06494793 -60.10609627 185.31825829 C-59.62071191 183.86212552 -59.1353032 182.40600087 -58.64986992 180.94988441 C-57.45311025 177.35995846 -56.25676293 173.76989618 -55.06130981 170.17953491 C-52.92165927 163.75473676 -50.77745221 157.33163757 -48.61474609 150.91455078 C-48.25124557 149.83307266 -47.88774506 148.75159454 -47.51322937 147.63734436 C-46.85550592 145.68158814 -46.19544964 143.72661379 -45.53230286 141.77268982 C-43.73110598 136.40875878 -42.15953767 131.02017237 -40.69987488 125.55378723 C-39.7518272 122.09443739 -38.64708085 118.71677314 -37.50390625 115.31640625 C-37.27429199 114.63043869 -37.04467773 113.94447113 -36.80810547 113.23771667 C-36.06233351 111.01170651 -35.31237824 108.78712982 -34.5625 106.5625 C-34.0340842 104.9867675 -33.50601473 103.41091882 -32.97827148 101.83496094 C-31.87887317 98.55306578 -30.77798972 95.2716751 -29.67578125 91.99072266 C-27.21978224 84.6786575 -24.77274877 77.36360586 -22.33004761 70.04708862 C-21.58743055 67.82461126 -20.84277059 65.60282655 -20.09790039 63.38110352 C-16.94477542 53.95679046 -13.93301426 44.49492438 -11 35 C-10.59938727 33.70762499 -10.19859098 32.41530687 -9.79760742 31.12304688 C-8.23991129 26.10091379 -6.68460702 21.07804352 -5.13085938 16.0546875 C-4.75380859 14.8378125 -4.37675781 13.6209375 -3.98828125 12.3671875 C-3.65352783 11.28550293 -3.31877441 10.20381836 -2.97387695 9.08935547 C-2.01513705 6.04801812 -1.01715204 3.02224879 0 0 Z " fill="#05D88C" transform="translate(435,0)"/>
<path d="M0 0 C1.95405016 0.923832 3.91866663 1.81961621 5.88769531 2.7109375 C20.16675673 9.42304619 32.5136806 19.41193772 42.09863281 31.9921875 C42.09863281 32.6521875 42.09863281 33.3121875 42.09863281 33.9921875 C42.75863281 33.9921875 43.41863281 33.9921875 44.09863281 33.9921875 C56.14594436 46.9274483 65.71149573 64.25885415 71.09863281 80.9921875 C71.66574241 82.66296377 72.23350972 84.33351685 72.80175781 86.00390625 C75.76472009 94.86068911 78.46677457 103.7274653 80.41113281 112.8671875 C80.63168335 113.89706787 80.63168335 113.89706787 80.85668945 114.94775391 C83.82963352 129.8871888 84.50368619 144.61739466 84.47363281 159.8046875 C84.47342133 160.79297546 84.47320984 161.78126343 84.47299194 162.79949951 C84.4258985 184.90306214 81.86233428 205.68157778 75.65234375 226.94238281 C75.07498819 229.07971848 74.63432319 231.21998561 74.20019531 233.390625 C70.49654935 250.45089999 60.72289792 268.31905758 50.09863281 281.9921875 C49.34582031 282.96542969 48.59300781 283.93867187 47.81738281 284.94140625 C26.4212679 311.79646144 -2.01341383 326.95275528 -35.58496094 332.61328125 C-42.03254587 333.32591331 -48.54728758 333.23663849 -55.02636719 333.2421875 C-55.7342337 333.24286224 -56.44210022 333.24353699 -57.17141724 333.24423218 C-75.71941852 333.21626656 -93.36397574 331.21392462 -110.90136719 324.9921875 C-111.61131836 324.74484863 -112.32126953 324.49750977 -113.05273438 324.24267578 C-123.9344743 320.36815372 -132.92011809 315.2258472 -141.90136719 307.9921875 C-142.46871582 307.53763184 -143.03606445 307.08307617 -143.62060547 306.61474609 C-150.80162762 300.81006955 -157.49439242 294.64878466 -163.90136719 287.9921875 C-164.45566406 287.4765625 -165.00996094 286.9609375 -165.58105469 286.4296875 C-166.90136719 284.9921875 -166.90136719 284.9921875 -167.90136719 281.9921875 C-167.90559913 282.83132407 -167.90983107 283.67046064 -167.91419125 284.5350256 C-168.01735112 304.92273552 -168.12596655 325.31040996 -168.24070644 345.69805813 C-168.29606051 355.5572381 -168.34954604 365.41642168 -168.39868164 375.27563477 C-168.44149679 383.8656884 -168.48776793 392.45571516 -168.53824574 401.04572731 C-168.56486825 405.59698368 -168.58972178 410.14823463 -168.61044121 414.69952202 C-168.62997437 418.97826183 -168.65410798 423.25695036 -168.68185806 427.53564453 C-168.69124616 429.11068354 -168.69891506 430.68573382 -168.7047863 432.26078987 C-168.71301777 434.40185761 -168.72728572 436.5427999 -168.7431488 438.68382263 C-168.74960135 439.88491889 -168.75605391 441.08601515 -168.76270199 442.32350826 C-168.90136719 444.9921875 -168.90136719 444.9921875 -169.90136719 445.9921875 C-172.14066605 446.08655279 -174.38298469 446.10961077 -176.62426758 446.10571289 C-177.32667068 446.10585892 -178.02907379 446.10600494 -178.75276184 446.1061554 C-181.08487997 446.10545622 -183.41691918 446.09766367 -185.74902344 446.08984375 C-187.36185157 446.08797958 -188.97468026 446.08655568 -190.58750916 446.08555603 C-194.84052076 446.08173073 -199.09349842 446.07190035 -203.34649658 446.06085205 C-207.68314149 446.05063819 -212.01979186 446.04605846 -216.35644531 446.04101562 C-224.87143488 446.03027809 -233.38639682 446.01320153 -241.90136719 445.9921875 C-243.38979203 443.01533781 -243.03637794 439.98199754 -243.02441502 436.71827507 C-243.02556886 435.95619922 -243.0267227 435.19412338 -243.02791151 434.40895432 C-243.0305804 431.82859423 -243.02605378 429.24829522 -243.0216217 426.66793823 C-243.02205735 424.81005181 -243.02293214 422.95216544 -243.02421087 421.09427941 C-243.02645713 415.96808211 -243.02243276 410.84190553 -243.01743281 405.71571088 C-243.01313036 400.19558539 -243.01457459 394.67546116 -243.01533508 389.15533447 C-243.01586045 379.58440751 -243.01271233 370.01348735 -243.00709724 360.4425621 C-242.99898395 346.60446327 -242.9963672 332.76636773 -242.99510925 318.92826678 C-242.99291846 296.47903141 -242.98626622 274.02979962 -242.97680664 251.58056641 C-242.96762596 229.7680666 -242.96054051 207.95556776 -242.95629883 186.14306641 C-242.9561673 185.4710043 -242.95603578 184.79894219 -242.95590026 184.10651456 C-242.95458177 177.35754384 -242.95330595 170.60857312 -242.9520614 163.85960239 C-242.94161589 107.23712807 -242.92368783 50.61465828 -242.90136719 -6.0078125 C-219.80136719 -6.0078125 -196.70136719 -6.0078125 -172.90136719 -6.0078125 C-172.57136719 7.8521875 -172.24136719 21.7121875 -171.90136719 35.9921875 C-169.59136719 32.3621875 -167.28136719 28.7321875 -164.90136719 24.9921875 C-162.11932527 21.43079598 -159.06132755 18.22049976 -155.90136719 14.9921875 C-155.19882813 14.24195313 -154.49628906 13.49171875 -153.77246094 12.71875 C-115.40774571 -25.31235901 -45.09696478 -21.39240772 0 0 Z M-134.90136719 59.9921875 C-134.90136719 60.6521875 -134.90136719 61.3121875 -134.90136719 61.9921875 C-135.63742188 62.23324219 -136.37347656 62.47429687 -137.13183594 62.72265625 C-150.65227742 68.92031984 -158.17465212 88.4601034 -163.07714844 101.62890625 C-168.94504006 118.31810449 -171.06201865 135.39549231 -171.90136719 152.9921875 C-171.93601074 153.69891602 -171.9706543 154.40564453 -172.00634766 155.13378906 C-172.98504801 178.75633293 -169.02308202 201.25533513 -159.90136719 222.9921875 C-159.39992188 224.1884375 -158.89847656 225.3846875 -158.38183594 226.6171875 C-154.01328942 236.14083149 -148.00089376 243.38518574 -140.90136719 250.9921875 C-140.24910156 251.7140625 -139.59683594 252.4359375 -138.92480469 253.1796875 C-125.52056041 267.40978569 -105.67293878 274.47126249 -86.44824219 275.26953125 C-61.66473547 275.87667657 -40.78866873 271.0790461 -22.02636719 253.9921875 C-21.49084229 253.50613037 -20.95531738 253.02007324 -20.40356445 252.51928711 C-16.66044119 248.99803943 -13.67313934 245.32883471 -10.90136719 240.9921875 C-10.90136719 240.0021875 -10.90136719 239.0121875 -10.90136719 237.9921875 C-10.24136719 237.9921875 -9.58136719 237.9921875 -8.90136719 237.9921875 C10.88322441 203.94662125 15.79234387 159.25091204 5.84863281 121.1171875 C2.56113993 109.1887778 -2.144837 97.94210905 -7.90136719 86.9921875 C-8.57078346 85.66023252 -9.2383196 84.32732424 -9.90136719 82.9921875 C-10.56136719 82.9921875 -11.22136719 82.9921875 -11.90136719 82.9921875 C-12.00578125 82.41597656 -12.11019531 81.83976563 -12.21777344 81.24609375 C-13.00851192 78.63891602 -14.15716286 77.06368394 -15.83886719 74.9296875 C-17.62137165 72.6479066 -19.29223287 70.40588898 -20.90136719 67.9921875 C-21.56136719 67.9921875 -22.22136719 67.9921875 -22.90136719 67.9921875 C-23.23136719 67.0021875 -23.56136719 66.0121875 -23.90136719 64.9921875 C-25.97765038 63.36764793 -28.02580991 61.88601661 -30.21386719 60.4296875 C-30.79587891 60.03072266 -31.37789062 59.63175781 -31.97753906 59.22070312 C-37.49228006 55.26013692 -37.49228006 55.26013692 -43.90136719 53.9921875 C-43.90136719 53.3321875 -43.90136719 52.6721875 -43.90136719 51.9921875 C-45.85532373 51.18977901 -47.81483487 50.40089441 -49.77636719 49.6171875 C-50.86691406 49.17632812 -51.95746094 48.73546875 -53.08105469 48.28125 C-78.24994002 39.24437045 -113.41443267 43.78191168 -134.90136719 59.9921875 Z " fill="#181818" transform="translate(2686.9013671875,448.0078125)"/>
<path d="M0 0 C45.8591256 -0.87768661 90.65157175 13.24484889 124.10644531 45.12329102 C157.93812329 78.33925838 171.13717521 127.09373914 171.74658203 173.42919922 C171.68299876 198.59695216 167.65301987 223.7832571 158.65625 247.33203125 C157.54163981 250.10635085 157.54163981 250.10635085 157.703125 253.125 C157.043125 253.125 156.383125 253.125 155.703125 253.125 C155.455625 254.28773438 155.208125 255.45046875 154.953125 256.6484375 C153.83182757 261.10814319 152.00901827 264.79391771 149.703125 268.75 C149.30722168 269.43803711 148.91131836 270.12607422 148.50341797 270.83496094 C141.50905711 282.77280773 133.29053936 293.1830215 123.703125 303.125 C122.61257813 304.31029297 122.61257813 304.31029297 121.5 305.51953125 C108.68948251 319.06546734 90.37516021 330.243315 72.703125 336.125 C71.62160156 336.50914062 70.54007813 336.89328125 69.42578125 337.2890625 C51.82129499 343.21172764 32.86922511 347.21401517 14.25 347.328125 C13.47606903 347.33518463 12.70213806 347.34224426 11.90475464 347.34951782 C-20.54208004 347.57823122 -20.54208004 347.57823122 -36.296875 344.125 C-37.26753906 343.91568848 -38.23820312 343.70637695 -39.23828125 343.49072266 C-56.39956452 339.69709105 -71.70862059 334.3110107 -87.296875 326.125 C-87.296875 325.465 -87.296875 324.805 -87.296875 324.125 C-87.98523437 323.88910156 -88.67359375 323.65320313 -89.3828125 323.41015625 C-92.88388871 321.86611594 -95.84710534 319.80581382 -98.921875 317.5625 C-99.52854004 317.12357422 -100.13520508 316.68464844 -100.76025391 316.23242188 C-112.52461605 307.64403705 -112.52461605 307.64403705 -117.296875 303.125 C-117.296875 302.465 -117.296875 301.805 -117.296875 301.125 C-117.956875 301.125 -118.616875 301.125 -119.296875 301.125 C-119.296875 300.465 -119.296875 299.805 -119.296875 299.125 C-119.956875 299.125 -120.616875 299.125 -121.296875 299.125 C-121.296875 298.465 -121.296875 297.805 -121.296875 297.125 C-121.956875 297.125 -122.616875 297.125 -123.296875 297.125 C-124.68212891 295.49536133 -124.68212891 295.49536133 -126.2734375 293.20703125 C-127.15008057 291.95394165 -127.15008057 291.95394165 -128.04443359 290.67553711 C-128.66398926 289.77198486 -129.28354492 288.86843262 -129.921875 287.9375 C-130.55561035 287.01783447 -131.1893457 286.09816895 -131.84228516 285.15063477 C-133.67102469 282.48241625 -135.48612828 279.80545068 -137.296875 277.125 C-137.72935547 276.49239258 -138.16183594 275.85978516 -138.60742188 275.20800781 C-147.09709147 262.69730842 -152.41702877 248.64111212 -156.796875 234.25 C-157.05227051 233.41202881 -157.30766602 232.57405762 -157.57080078 231.71069336 C-158.73184346 227.71639648 -159.49209845 224.31839962 -159.296875 220.125 C-159.7609375 218.7946875 -159.7609375 218.7946875 -160.234375 217.4375 C-161.12824094 214.65074149 -161.53710566 212.5236805 -161.796875 209.65234375 C-161.8786499 208.76635498 -161.9604248 207.88036621 -162.04467773 206.9675293 C-162.12790283 206.02949463 -162.21112793 205.09145996 -162.296875 204.125 C-162.38461182 203.18889893 -162.47234863 202.25279785 -162.56274414 201.28833008 C-162.83877398 198.31806883 -163.10020843 195.34677672 -163.359375 192.375 C-163.45025391 191.39273438 -163.54113281 190.41046875 -163.63476562 189.3984375 C-164.72473644 176.77772275 -164.3404315 164.30736946 -163.421875 151.6875 C-163.30392578 149.86702148 -163.30392578 149.86702148 -163.18359375 148.00976562 C-162.76221314 142.0877474 -162.1645755 136.7579847 -160.296875 131.125 C-160.02144523 129.56678157 -159.77028407 128.00402311 -159.546875 126.4375 C-153.154575 89.9963567 -131.63236678 52.8861325 -101.296875 31.125 C-90.2807268 23.5032518 -78.79393699 17.78716891 -66.33154297 12.93554688 C-64.46563643 12.19222917 -62.62735864 11.3805111 -60.79296875 10.5625 C-41.71998491 2.7202005 -20.39898132 0.77342109 0 0 Z M-52.296875 78.125 C-53.10382812 78.79015625 -53.91078125 79.4553125 -54.7421875 80.140625 C-78.12396379 100.01871004 -86.51855026 130.76749422 -90.296875 160.125 C-90.5339028 165.05984704 -90.54256671 169.99749434 -90.546875 174.9375 C-90.54754974 175.63096527 -90.54822449 176.32443054 -90.54891968 177.03890991 C-90.53199124 187.9992048 -89.88174671 198.44713919 -87.296875 209.125 C-87.13058594 209.85928223 -86.96429687 210.59356445 -86.79296875 211.35009766 C-84.1546983 222.82901696 -79.9770282 232.8389411 -74.296875 243.125 C-73.71808594 244.218125 -73.13929688 245.31125 -72.54296875 246.4375 C-68.6262355 253.56213774 -63.94490633 259.30427706 -58.296875 265.125 C-57.74515625 265.75019531 -57.1934375 266.37539063 -56.625 267.01953125 C-44.34179101 280.48849557 -23.48476035 288.18259382 -5.65283203 289.2890625 C19.38822241 290.31797075 42.03699959 286.00485841 61.015625 268.5625 C62.92634301 266.76471434 64.81520993 264.94696171 66.703125 263.125 C67.39277344 262.48691406 68.08242187 261.84882812 68.79296875 261.19140625 C70.60636736 259.52305817 70.60636736 259.52305817 72.703125 257.125 C72.703125 256.135 72.703125 255.145 72.703125 254.125 C73.693125 253.795 74.683125 253.465 75.703125 253.125 C95.84630223 224.66310651 101.86806287 183.71305344 96.87646484 149.95288086 C96.28399423 146.64378416 95.50806403 143.38674607 94.703125 140.125 C94.35860441 138.57699422 94.01489179 137.02880845 93.671875 135.48046875 C91.06790754 124.27866599 86.9683132 114.32875182 81.703125 104.125 C81.043125 104.125 80.383125 104.125 79.703125 104.125 C79.39375 103.17625 79.084375 102.2275 78.765625 101.25 C77.82917758 98.26419592 77.82917758 98.26419592 76.703125 96.125 C76.043125 96.125 75.383125 96.125 74.703125 96.125 C74.373125 94.805 74.043125 93.485 73.703125 92.125 C73.043125 92.125 72.383125 92.125 71.703125 92.125 C71.5175 91.465 71.331875 90.805 71.140625 90.125 C68.03962032 83.65333806 62.93573973 78.60366869 56.703125 75.125 C56.043125 75.125 55.383125 75.125 54.703125 75.125 C54.373125 74.465 54.043125 73.805 53.703125 73.125 C51.67849245 72.47286708 51.67849245 72.47286708 49.703125 72.125 C49.703125 71.465 49.703125 70.805 49.703125 70.125 C17.74086448 53.09401447 -24.18375269 53.30058257 -52.296875 78.125 Z " fill="#181818" transform="translate(3254.296875,433.875)"/>
<path d="M0 0 C1.16917969 0.53753906 2.33835937 1.07507813 3.54296875 1.62890625 C12.33880584 5.81375793 19.05262717 10.53377851 25.296875 18.015625 C26.88468938 19.86564726 28.54119821 21.51552354 30.3125 23.1875 C44.0514035 36.89559879 51.89389231 53.162941 56 72 C56.19464844 72.886875 56.38929688 73.77375 56.58984375 74.6875 C57.14584161 77.8222689 57.12210809 80.82518963 57 84 C55.33212103 85.66787897 53.30278498 85.13174169 51.07473755 85.14663696 C50.37081879 85.14618378 49.66690002 85.14573059 48.94165039 85.14526367 C48.20344559 85.14862228 47.46524078 85.1519809 46.70466614 85.15544128 C44.25231262 85.16497882 41.80002718 85.16689579 39.34765625 85.16796875 C37.64993765 85.17117939 35.95221934 85.17454331 34.25450134 85.17805481 C30.69090127 85.1840531 27.12732547 85.18589399 23.5637207 85.18530273 C18.98906956 85.18520107 14.4145735 85.1988542 9.83995914 85.21607494 C6.3321816 85.22717344 2.82444179 85.22922261 -0.68335152 85.22869301 C-2.37031145 85.22987634 -4.05727227 85.23431778 -5.74421501 85.24202538 C-8.10034025 85.25178209 -10.45612558 85.24896453 -12.81225586 85.24291992 C-13.51415039 85.24853943 -14.21604492 85.25415894 -14.93920898 85.25994873 C-19.77168423 85.22831577 -19.77168423 85.22831577 -22 83 C-22.63552619 80.98298574 -23.26477019 78.96358293 -23.84912109 76.93115234 C-27.25069152 65.3388052 -31.72110463 57.69187448 -42.53149414 51.67651367 C-64.70132841 40.19851437 -90.07041815 39.80317162 -114 45 C-115.09054687 45.20496094 -116.18109375 45.40992188 -117.3046875 45.62109375 C-126.03384525 47.44628128 -134.87694305 51.22645226 -141.0625 57.875 C-144.75499164 63.83063168 -146.85173136 69.94279729 -146 77 C-143.48602866 87.51440842 -138.19881878 93.5662978 -129.125 99.1875 C-127.4368956 100.16095393 -125.7238546 101.09135577 -124 102 C-123.30495361 102.37705078 -122.60990723 102.75410156 -121.89379883 103.14257812 C-115.28239312 106.61408113 -108.58463683 108.99639404 -101.4375 111.125 C-100.1882373 111.49971436 -98.93897461 111.87442871 -97.65185547 112.26049805 C-80.73197645 117.21276051 -63.44222615 120.7686466 -46.2265625 124.51953125 C-23.01552713 129.57784981 -23.01552713 129.57784981 -13 133 C-11.47393228 133.47417844 -9.9466336 133.94441848 -8.41796875 134.41015625 C15.23580234 141.80011902 37.67764977 153.83901285 53 174 C53 174.99 53 175.98 53 177 C53.66 177 54.32 177 55 177 C55 177.99 55 178.98 55 180 C55.66 180 56.32 180 57 180 C68.410395 202.94217718 69.59024471 230.39424971 63 255 C61.89553138 257.86033141 60.56327352 260.5445487 59.125 263.25 C58.78597656 263.91773438 58.44695313 264.58546875 58.09765625 265.2734375 C55.98369174 269.37276031 53.75136392 273.29314149 51 277 C50.34 277 49.68 277 49 277 C48.67 278.32 48.34 279.64 48 281 C47.34 281 46.68 281 46 281 C45.67 282.32 45.34 283.64 45 285 C44.34 285 43.68 285 43 285 C43 285.66 43 286.32 43 287 C41.36896408 288.50126091 39.66782355 289.92684386 37.9375 291.3125 C36.93460938 292.116875 35.93171875 292.92125 34.8984375 293.75 C32.65023754 295.49523339 30.39442625 297.18320655 28.0625 298.8125 C25.08561183 300.77037805 25.08561183 300.77037805 23.36328125 302.828125 C19.99011349 305.92809405 16.17658574 307.84010531 12.125 309.9375 C10.85015747 310.59999756 10.85015747 310.59999756 9.54956055 311.27587891 C-1.77752495 317.05088982 -13.4859454 320.67805446 -25.85644531 323.50732422 C-27.30290167 323.83977854 -28.74756005 324.18014097 -30.19042969 324.52783203 C-76.26334394 335.60904102 -135.20430989 333.28519375 -177 309 C-180.84805339 306.58913303 -184.62527374 304.04583345 -188 301 C-188 300.34 -188 299.68 -188 299 C-188.55816406 298.76925781 -189.11632813 298.53851562 -189.69140625 298.30078125 C-192.61289201 296.65466491 -194.60054666 294.58926868 -196.9375 292.1875 C-197.77152344 291.33542969 -198.60554688 290.48335937 -199.46484375 289.60546875 C-200.71974609 288.31576172 -200.71974609 288.31576172 -202 287 C-202.85078125 286.15695312 -203.7015625 285.31390625 -204.578125 284.4453125 C-214.66993027 274.25584459 -222.84377344 261.37484374 -225 247 C-225.32449201 245.66448743 -225.65833629 244.33122305 -226 243 C-228.18057314 233.28963521 -229.07296796 223.93580324 -229 214 C-203.64761489 213.8551547 -178.34056297 214.22277089 -153 215 C-152.49122314 216.85334961 -152.49122314 216.85334961 -151.97216797 218.74414062 C-151.52059449 220.38153432 -151.06892951 222.01890279 -150.6171875 223.65625 C-150.39442139 224.46868164 -150.17165527 225.28111328 -149.94213867 226.11816406 C-145.94235323 240.59078221 -139.82502593 253.74323031 -126.41796875 261.7421875 C-96.65897194 277.22263495 -60.27200292 274.41896094 -29.18798828 264.79272461 C-21.02992326 261.8369963 -15.05507346 255.92371341 -11.08203125 248.35546875 C-7.43896454 240.42489393 -6.63045897 231.42188145 -8.46484375 222.8203125 C-13.88663529 208.89689518 -27.13608525 201.6853305 -39.98535156 195.85742188 C-46.80141376 192.9565481 -53.72096863 191.20693451 -61 190 C-63.17183243 189.47943192 -65.33799383 188.93497907 -67.5 188.375 C-75.47267618 186.3392997 -83.48379795 184.48071922 -91.5 182.625 C-96.66805138 181.42257029 -101.83429445 180.21246343 -107 179 C-108.09006348 178.74460449 -109.18012695 178.48920898 -110.30322266 178.22607422 C-130.3504141 173.49213784 -150.54065372 168.321576 -169 159 C-171.10013603 158.03286567 -173.20417313 157.07414589 -175.3125 156.125 C-176.21613281 155.71507812 -177.11976562 155.30515625 -178.05078125 154.8828125 C-179.01564453 154.44582031 -179.01564453 154.44582031 -180 154 C-180 153.34 -180 152.68 -180 152 C-180.72574219 151.74347656 -181.45148438 151.48695313 -182.19921875 151.22265625 C-196.51033395 144.97526566 -208.11979471 128.63519087 -213.8125 114.625 C-222.23840511 90.68067706 -222.41624022 64.4118668 -211.9375 41.0625 C-205.88460525 29.67861538 -196.86979708 20.14430808 -187 12 C-186.08863281 11.21882813 -185.17726563 10.43765625 -184.23828125 9.6328125 C-176.77216394 3.58250734 -169.00477054 0.16090007 -160.10693359 -3.16870117 C-157.88190434 -4.0465951 -155.72805624 -5.03219971 -153.55859375 -6.0390625 C-149.0549599 -8.06199989 -144.54112862 -9.40142544 -139.75 -10.5625 C-138.47104858 -10.87719238 -138.47104858 -10.87719238 -137.16625977 -11.19824219 C-127.55103028 -13.47384942 -117.81205897 -14.8884214 -108 -16 C-107.16879639 -16.09643799 -106.33759277 -16.19287598 -105.48120117 -16.29223633 C-69.41749369 -20.0522905 -32.88605903 -15.71305303 0 0 Z " fill="#181818" transform="translate(2113,450)"/>
<path d="M0 0 C122.1 0 244.2 0 370 0 C370 23.43 370 46.86 370 71 C322.15 71 274.3 71 225 71 C225 198.38 225 325.76 225 457 C198.6 457 172.2 457 145 457 C145 328.96 145 200.92 145 69 C97.15 69 49.3 69 0 69 C0 46.23 0 23.46 0 0 Z " fill="#181818" transform="translate(955,317)"/>
<path d="M0 0 C24.09 0 48.18 0 73 0 C73.92217245 4.61086226 74.13472691 8.79170509 74.11352539 13.45065308 C74.11367425 14.29936513 74.11382311 15.14807719 74.11397648 16.02250779 C74.11328226 18.86512816 74.1054411 21.70768383 74.09765625 24.55029297 C74.095737 26.58890751 74.09427323 28.62752252 74.0932312 30.6661377 C74.09006976 35.0559158 74.08380039 39.44567469 74.07516479 43.8354454 C74.06164851 50.77718716 74.05574942 57.71892251 74.05102539 64.66067505 C74.03897668 80.65188515 74.0169303 96.64307859 73.99479675 112.63427734 C73.97461811 127.28480896 73.95654648 141.93533495 73.94658184 156.58587754 C73.94159969 163.48584022 73.93173996 170.38577354 73.91815186 177.2857244 C73.91068937 181.5798867 73.90737598 185.87404497 73.9051857 190.16821289 C73.90331452 192.15840013 73.89971523 194.14858662 73.89425278 196.13876724 C73.88702579 198.8576568 73.88599948 201.57648208 73.88647461 204.29537964 C73.88108217 205.47365477 73.88108217 205.47365477 73.87558079 206.67573345 C73.88405442 211.20988305 74.27611578 215.51102079 75 220 C75.10699219 221.19496094 75.21398438 222.38992188 75.32421875 223.62109375 C76.96477043 240.85570651 82.6679245 256.68317861 96.30078125 268.1171875 C113.31531501 279.98550193 134.14274624 282.27899055 154.28710938 279.22607422 C173.31773148 275.82233857 190.14550739 267.47715073 201.78515625 251.55859375 C208.67953281 240.57343622 212.64503285 228.84783536 214 216 C214.08445104 215.32267903 214.16890208 214.64535806 214.25591224 213.94751221 C214.90260897 208.64376061 215.15148175 203.43710357 215.15821838 198.09715271 C215.16315636 197.2482511 215.16809434 196.39934949 215.17318195 195.52472359 C215.1884296 192.70585594 215.19688269 189.88701084 215.20532227 187.06811523 C215.21491083 185.03725489 215.22492147 183.00639651 215.23532104 180.97554016 C215.26227024 175.48039316 215.28333365 169.98523766 215.30332303 164.49006152 C215.32524443 158.74051552 215.35260292 152.99099541 215.37937927 147.24147034 C215.42922314 136.36199911 215.47419268 125.48251344 215.51740164 114.60301405 C215.56684513 102.2136648 215.62173682 89.82434155 215.67708123 77.43501747 C215.79077373 51.95670141 215.8969212 26.47836136 216 1 C240.42 1 264.84 1 290 1 C290 109.9 290 218.8 290 331 C218 331 218 331 216 330 C215.67 316.47 215.34 302.94 215 289 C212.525 292.96 212.525 292.96 210 297 C209.34 297 208.68 297 208 297 C207.5978125 297.86625 207.5978125 297.86625 207.1875 298.75 C205.57292282 301.80919887 204.14760604 304.42619698 201 306 C201 306.66 201 307.32 201 308 C197.53265934 311.23662407 193.74561708 314.09366971 190 317 C189.20980469 317.61617187 188.41960937 318.23234375 187.60546875 318.8671875 C166.18554608 334.70406389 139.46799871 342.41011035 113 341 C111.72213623 340.93619141 111.72213623 340.93619141 110.41845703 340.87109375 C80.12494575 339.19795239 49.84836225 332.81270711 28.62841797 309.49267578 C3.14673546 280.4021885 -0.17924839 241.89006726 -0.11352539 204.79980469 C-0.11324296 202.56160992 -0.11340235 200.32341505 -0.1139679 198.08522034 C-0.11425368 192.03859493 -0.10839236 185.99198954 -0.10139394 179.94536877 C-0.09512393 173.61529328 -0.09455372 167.28521728 -0.09336853 160.95513916 C-0.090618 150.34004328 -0.08438052 139.72495527 -0.07543945 129.10986328 C-0.06624441 118.18180375 -0.05917384 107.25374621 -0.05493164 96.32568359 C-0.05466892 95.65078828 -0.05440619 94.97589297 -0.05413551 94.28054628 C-0.05283036 90.89440973 -0.05156668 87.50827317 -0.05032361 84.12213659 C-0.03997612 56.08141817 -0.02155142 28.04071217 0 0 Z " fill="#181818" transform="translate(1547,442)"/>
<path d="M0 0 C24.42 0 48.84 0 74 0 C74 32.67 74 65.34 74 99 C95.45 99 116.9 99 139 99 C139 117.15 139 135.3 139 154 C117.55 154 96.1 154 74 154 C74.06298625 177.97514282 74.13826141 201.95014562 74.23571491 225.9251709 C74.28057984 237.05850271 74.32001575 248.19180319 74.34643555 259.32519531 C74.36949119 269.0350081 74.40297307 278.74472099 74.44870156 288.45445442 C74.47253214 293.59027689 74.49132727 298.72600104 74.49761391 303.86187744 C74.50371108 308.70790273 74.52387579 313.55367678 74.55427551 318.39960861 C74.56298216 320.16668317 74.56679386 321.93379067 74.56500816 323.70088577 C74.43337408 345.99419932 74.43337408 345.99419932 83 366 C86.51251864 369.00497581 90.43733464 370.42966683 95 371 C95.93328125 371.16757812 96.8665625 371.33515625 97.828125 371.5078125 C103.60084509 372.33087611 109.43147435 372.18432048 115.25 372.1875 C116.41402344 372.19974609 117.57804687 372.21199219 118.77734375 372.22460938 C125.39033224 372.23571742 131.51547865 371.76100594 137.97949219 370.33325195 C138.97964355 370.16829224 138.97964355 370.16829224 140 370 C141 371 141 371 141.12025452 373.28419495 C141.11803391 374.29457321 141.11581329 375.30495148 141.11352539 376.34594727 C141.11344986 377.4870546 141.11337433 378.62816193 141.11329651 379.80384827 C141.10813522 381.0454924 141.10297394 382.28713654 141.09765625 383.56640625 C141.09553383 385.46204567 141.09553383 385.46204567 141.09336853 387.39598083 C141.08870582 390.76124889 141.0797148 394.1264499 141.06866455 397.49169922 C141.05844846 400.9234967 141.05387049 404.35530109 141.04882812 407.78710938 C141.0377738 414.52475824 141.0210171 421.26237525 141 428 C124.40145276 432.2053484 107.32413105 432.30386304 90.3125 432.3125 C88.88043213 432.31746994 88.88043213 432.31746994 87.41943359 432.32254028 C76.7344653 432.34443007 66.51340128 432.05068825 56 430 C54.08375189 429.68494361 52.16713609 429.37210716 50.25 429.0625 C33.72838759 425.93485372 20.63147183 417.89763634 11 404 C2.12215264 389.41367878 -1.18243637 373.01111275 -1.12025452 356.06555176 C-1.12110894 355.20117036 -1.12196337 354.33678897 -1.12284368 353.4462142 C-1.12448214 350.56893898 -1.11900403 347.69172292 -1.11352539 344.81445312 C-1.11324314 342.74433392 -1.11340199 340.67421461 -1.1139679 338.60409546 C-1.11425439 332.99730119 -1.10838151 327.39052838 -1.10139394 321.78373909 C-1.09513582 315.9194258 -1.09455465 310.05511201 -1.09336853 304.1907959 C-1.09026247 293.09169343 -1.08205883 281.99260084 -1.07201904 270.89350271 C-1.06083541 258.25510673 -1.05534178 245.61671028 -1.05032361 232.97831059 C-1.03987562 206.98553366 -1.02153914 180.99277026 -1 155 C-19.15 155 -37.3 155 -56 155 C-56.020625 150.029375 -56.04125 145.05875 -56.0625 139.9375 C-56.071604 138.42406006 -56.08070801 136.91062012 -56.09008789 135.35131836 C-56.11379846 123.17555662 -55.53085676 111.20970543 -55 99 C-36.85 99 -18.7 99 0 99 C0 66.33 0 33.66 0 0 Z " fill="#181818" transform="translate(2253,343)"/>
<path d="M0 0 C24.42 0 48.84 0 74 0 C74 32.34 74 64.68 74 98 C106.175 98.495 106.175 98.495 139 99 C139.0309375 112.3340625 139.0309375 112.3340625 139.0625 125.9375 C139.071604 128.74757568 139.08070801 131.55765137 139.09008789 134.45288086 C139.09300683 136.66520134 139.09555544 138.87752235 139.09765625 141.08984375 C139.10277222 142.25068481 139.10788818 143.41152588 139.11315918 144.60754395 C139.11334045 146.25188416 139.11334045 146.25188416 139.11352539 147.92944336 C139.115746 148.88652695 139.11796661 149.84361053 139.12025452 150.82969666 C139 153 139 153 138 154 C136.0064857 154.12369325 134.0086353 154.1779639 132.01147461 154.20532227 C130.73022202 154.22526749 129.44896942 154.24521271 128.12889099 154.26576233 C126.72004316 154.28274797 125.31119405 154.29962673 123.90234375 154.31640625 C122.46887095 154.33696915 121.03540431 154.35796544 119.60194397 154.37937927 C115.8224688 154.43466859 112.0429383 154.48404745 108.2633667 154.53222656 C104.40925145 154.58239165 100.55521691 154.63810371 96.70117188 154.69335938 C89.13418286 154.80102479 81.5671269 154.90245097 74 155 C73.97664994 178.77388102 73.95901044 202.54776033 73.94818783 226.32165051 C73.94302936 237.36002676 73.93599519 248.39839589 73.92456055 259.43676758 C73.91460002 269.05668734 73.9081433 278.67660195 73.90591151 288.29652673 C73.90460673 293.39118959 73.90153556 298.4858377 73.89426994 303.58049583 C73.88748817 308.37466854 73.88538746 313.16882039 73.88689232 317.96299744 C73.88661696 319.72342352 73.88462462 321.48385029 73.88079453 323.24427223 C73.87582364 325.64665374 73.8770143 328.04895641 73.87974548 330.45133972 C73.87683264 331.14881905 73.8739198 331.84629838 73.87091869 332.56491345 C73.88202777 336.17718229 74.18524941 339.4827369 75 343 C75.11809731 344.56150888 75.22205801 346.12414553 75.3125 347.6875 C75.9773116 354.54017337 78.06807753 360.40570412 82.1875 365.9375 C91.67615527 372.8958472 104.0842516 372.18132045 115.3125 372.1875 C116.47201172 372.19974609 117.63152344 372.21199219 118.82617188 372.22460938 C125.42200062 372.23573219 131.52994137 371.75641949 137.97729492 370.33325195 C138.6447876 370.22327881 139.31228027 370.11330566 140 370 C141 371 141 371 141.12025452 373.28419495 C141.11803391 374.29457321 141.11581329 375.30495148 141.11352539 376.34594727 C141.11344986 377.4870546 141.11337433 378.62816193 141.11329651 379.80384827 C141.10813522 381.0454924 141.10297394 382.28713654 141.09765625 383.56640625 C141.09553383 385.46204567 141.09553383 385.46204567 141.09336853 387.39598083 C141.08870582 390.76124889 141.0797148 394.1264499 141.06866455 397.49169922 C141.05844846 400.9234967 141.05387049 404.35530109 141.04882812 407.78710938 C141.0377738 414.52475824 141.0210171 421.26237525 141 428 C124.44031168 432.21059388 107.16669344 432.32034417 90.1875 432.375 C89.28836884 432.38258331 88.38923767 432.39016663 87.46286011 432.39797974 C66.37496873 432.54182358 38.20670466 431.74960675 21.5625 416.8125 C21.046875 416.214375 20.53125 415.61625 20 415 C19.34 414.34 18.68 413.68 18 413 C4.62988126 396.29715371 -1.19878549 377.46651355 -1.12025452 356.06555176 C-1.12110894 355.20117036 -1.12196337 354.33678897 -1.12284368 353.4462142 C-1.12448214 350.56893898 -1.11900403 347.69172292 -1.11352539 344.81445312 C-1.11324314 342.74433392 -1.11340199 340.67421461 -1.1139679 338.60409546 C-1.11425439 332.99730119 -1.10838151 327.39052838 -1.10139394 321.78373909 C-1.09513582 315.9194258 -1.09455465 310.05511201 -1.09336853 304.1907959 C-1.09026247 293.09169343 -1.08205883 281.99260084 -1.07201904 270.89350271 C-1.06083541 258.25510673 -1.05534178 245.61671028 -1.05032361 232.97831059 C-1.03987562 206.98553366 -1.02153914 180.99277026 -1 155 C-19.15 155 -37.3 155 -56 155 C-56.020625 150.215 -56.04125 145.43 -56.0625 140.5 C-56.071604 139.04787109 -56.08070801 137.59574219 -56.09008789 136.09960938 C-56.11511681 123.67880547 -55.5190045 111.45610803 -55 99 C-36.85 99 -18.7 99 0 99 C0 66.33 0 33.66 0 0 Z " fill="#181818" transform="translate(3499,343)"/>
<path d="M0 0 C24.09 0 48.18 0 73 0 C73.02258287 57.94728837 73.04049891 115.89457577 73.05106533 173.84186765 C73.05231272 180.67525878 73.05360927 187.5086499 73.05493164 194.34204102 C73.0550624 195.02206368 73.05519316 195.70208635 73.05532788 196.40271576 C73.05959303 218.46405064 73.06710717 240.52538297 73.07629722 262.5867163 C73.08598696 285.88978306 73.09199361 309.19284797 73.09408849 332.4959169 C73.09546406 346.4641175 73.09981644 360.43231078 73.10791647 374.40050913 C73.11318194 383.96492478 73.11480475 393.52933663 73.11350138 403.09375363 C73.11285769 408.62083481 73.113879 414.14790314 73.11920547 419.67498207 C73.124038 424.72607896 73.12433963 429.77715425 73.12089889 434.82825208 C73.12047306 436.66405898 73.12177002 438.49986717 73.12488318 440.33567148 C73.12884476 442.81415764 73.12676491 445.29256385 73.12304783 447.77104855 C73.12567484 448.49839871 73.12830186 449.22574887 73.13100848 449.97513995 C73.1141458 454.8858542 73.1141458 454.8858542 72 456 C69.76070114 456.09436529 67.5183825 456.11742327 65.27709961 456.11352539 C64.5746965 456.11367142 63.8722934 456.11381744 63.14860535 456.1139679 C60.81648722 456.11326872 58.484448 456.10547617 56.15234375 456.09765625 C54.53951562 456.09579208 52.92668693 456.09436818 51.31385803 456.09336853 C47.06084643 456.08954323 42.80786876 456.07971285 38.55487061 456.06866455 C34.2182257 456.05845069 29.88157533 456.05387096 25.54492188 456.04882812 C17.02993231 456.03809059 8.51497037 456.02101403 0 456 C-1.49661747 453.00676507 -1.12663212 449.94508998 -1.10743046 446.66361809 C-1.10689593 445.89478875 -1.1063614 445.1259594 -1.10581067 444.3338322 C-1.10275718 441.73048795 -1.09247637 439.1272207 -1.08229065 436.52389526 C-1.07859961 434.64951058 -1.07534964 432.77512499 -1.07250541 430.90073884 C-1.06336994 425.72892528 -1.04793618 420.55714631 -1.03152263 415.38535142 C-1.01493433 409.81615369 -1.00411788 404.24694451 -0.99261475 398.67773438 C-0.97187358 389.02167648 -0.94744274 379.36563351 -0.92053413 369.70959091 C-0.88163368 355.74842483 -0.84825387 341.78724988 -0.81623887 327.82606651 C-0.76415098 305.17716517 -0.70758199 282.52827761 -0.64819336 259.87939453 C-0.59049978 237.87288949 -0.53491062 215.86638079 -0.48217773 193.85986328 C-0.48055215 193.18182495 -0.47892657 192.50378662 -0.47725173 191.80520167 C-0.46092967 184.99621744 -0.44465046 178.1872331 -0.42840267 171.37824869 C-0.2920827 114.25214885 -0.14824728 57.12607005 0 0 Z " fill="#181818" transform="translate(2962,317)"/>
<path d="M0 0 C1.29292969 -0.01224609 2.58585937 -0.02449219 3.91796875 -0.03710938 C5.17222656 -0.03904297 6.42648437 -0.04097656 7.71875 -0.04296875 C9.4193457 -0.04913208 9.4193457 -0.04913208 11.15429688 -0.05541992 C14.5 0.1875 14.5 0.1875 21.5 2.1875 C21.5 25.2875 21.5 48.3875 21.5 72.1875 C18.71442953 73.58028524 17.05159925 72.91573719 13.99609375 72.375 C-7.2194334 68.79702673 -22.71498596 68.98944739 -43.22753906 75.47607422 C-46.30275338 76.43881321 -49.39747667 77.31728004 -52.5 78.1875 C-52.5 78.8475 -52.5 79.5075 -52.5 80.1875 C-53.49 80.1875 -54.48 80.1875 -55.5 80.1875 C-55.5 80.8475 -55.5 81.5075 -55.5 82.1875 C-56.49 82.1875 -57.48 82.1875 -58.5 82.1875 C-58.73460937 82.76242187 -58.96921875 83.33734375 -59.2109375 83.9296875 C-60.79576127 86.70553035 -62.67827161 88.25967215 -65.125 90.3125 C-78.60583596 102.18107459 -87.21702188 117.60831498 -92.125 134.75 C-92.31908447 135.41451172 -92.51316895 136.07902344 -92.71313477 136.76367188 C-96.62207743 151.12021247 -97.94848428 165.39477748 -97.93237305 180.20361328 C-97.94142055 181.92053925 -97.9517549 183.63745884 -97.96325684 185.35437012 C-97.99050276 189.95234887 -98.00006653 194.55020405 -98.00611091 199.14825296 C-98.01558027 203.97688468 -98.04178956 208.80542708 -98.06611633 213.63400269 C-98.10955192 222.74945523 -98.13823904 231.86489021 -98.16143972 240.98041427 C-98.18861539 251.37004526 -98.23251854 261.75958537 -98.27772844 272.14915109 C-98.3702456 293.49521829 -98.44207598 314.8413127 -98.5 336.1875 C-102.97464889 337.76203771 -106.54186539 338.43982325 -111.29980469 338.44628906 C-112.27653389 338.45154602 -112.27653389 338.45154602 -113.272995 338.45690918 C-115.40606624 338.46564863 -117.53880092 338.45990803 -119.671875 338.453125 C-121.16066552 338.45447324 -122.64945561 338.4564151 -124.13824463 338.45892334 C-127.24829325 338.46186347 -130.35822655 338.45761041 -133.46826172 338.44824219 C-137.45875518 338.4368084 -141.44898076 338.44343874 -145.43946457 338.45538712 C-148.50889113 338.46260195 -151.57825375 338.46032024 -154.64768219 338.45513153 C-156.11972332 338.45379604 -157.59177023 338.45543925 -159.06380463 338.46009064 C-161.11528515 338.46515411 -163.1663258 338.45745052 -165.21777344 338.44628906 C-166.38548279 338.44469788 -167.55319214 338.44310669 -168.75628662 338.44146729 C-171.5 338.1875 -171.5 338.1875 -173.5 336.1875 C-173.74839699 333.84236944 -173.74839699 333.84236944 -173.74609566 330.83452415 C-173.75007775 329.6914717 -173.75405985 328.54841925 -173.75816262 327.37072885 C-173.75233693 326.10421444 -173.74651125 324.83770003 -173.74050903 323.5328064 C-173.74138048 322.18226974 -173.74313033 320.83173342 -173.74568737 319.48119891 C-173.75017695 315.75736005 -173.74213524 312.03363541 -173.73213124 308.30981112 C-173.72352212 304.29890213 -173.7264151 300.28799997 -173.72793579 296.27708435 C-173.72898626 289.32369832 -173.72269283 282.37034973 -173.71146011 275.41697311 C-173.6952299 265.36347056 -173.68999965 255.30998618 -173.68748413 245.25647195 C-173.68310313 228.94668717 -173.66978305 212.63692237 -173.65087891 196.32714844 C-173.63253058 180.48046977 -173.61836896 164.63379652 -173.60986328 148.78710938 C-173.60933783 147.81088727 -173.60881239 146.83466516 -173.60827102 145.82886057 C-173.60566101 140.93161057 -173.60313358 136.03436053 -173.60064721 131.13711047 C-173.57990209 90.48722258 -173.54302554 49.83737161 -173.5 9.1875 C-150.4 9.1875 -127.3 9.1875 -103.5 9.1875 C-103.17 28.6575 -102.84 48.1275 -102.5 68.1875 C-99.86 62.9075 -97.22 57.6275 -94.5 52.1875 C-87.45722267 42.17934274 -78.90571419 31.01768244 -68.5 24.1875 C-67.84 24.1875 -67.18 24.1875 -66.5 24.1875 C-66.5 23.5275 -66.5 22.8675 -66.5 22.1875 C-64.94628906 21.04589844 -64.94628906 21.04589844 -62.765625 19.796875 C-61.96987061 19.33740479 -61.17411621 18.87793457 -60.35424805 18.40454102 C-59.49484619 17.92041748 -58.63544434 17.43629395 -57.75 16.9375 C-56.87835205 16.44241943 -56.0067041 15.94733887 -55.10864258 15.43725586 C-52.5786995 14.00908109 -50.04123632 12.59546107 -47.5 11.1875 C-46.36433594 10.55457031 -45.22867187 9.92164063 -44.05859375 9.26953125 C-29.91540946 1.78422691 -15.76914132 0.00786099 0 0 Z " fill="#181818" transform="translate(1480.5,432.8125)"/>
<path d="M0 0 C24.09 0 48.18 0 73 0 C73 108.9 73 217.8 73 330 C68.82868204 330.83426359 65.50195153 331.12655066 61.29785156 331.12939453 C60.64523849 331.13114685 59.99262543 331.13289917 59.32023621 331.13470459 C57.17700493 331.13908332 55.03385702 331.13620058 52.890625 331.1328125 C51.39801009 331.13348636 49.90539529 331.13445707 48.41278076 331.13571167 C45.29259186 331.13718297 42.17243166 331.13505113 39.05224609 331.13037109 C35.04487977 331.12465431 31.03758013 331.12796866 27.03021622 331.13394356 C23.95226534 331.13754765 20.87433043 331.13641164 17.79637909 331.13381577 C16.31792951 331.1331471 14.83947849 331.13397283 13.36103058 331.13629532 C11.30217103 331.13882149 9.24342161 331.13498273 7.18457031 331.12939453 C6.01162415 331.12859894 4.83867798 331.12780334 3.63018799 331.12698364 C1 331 1 331 0 330 C-0.09739464 328.24329292 -0.12371452 326.48262461 -0.12304783 324.72321987 C-0.12503888 323.57170828 -0.12702993 322.42019669 -0.12908131 321.23379081 C-0.12616847 319.95269072 -0.12325563 318.67159062 -0.12025452 317.35166931 C-0.1206901 315.98962193 -0.12156477 314.62757463 -0.12284368 313.26552778 C-0.1250912 309.50525718 -0.12106388 305.74501478 -0.11606562 301.98474777 C-0.11176496 297.93632942 -0.11320727 293.88791279 -0.1139679 289.8394928 C-0.11449338 282.8195298 -0.11134407 275.79957607 -0.10573006 268.7796154 C-0.0976183 258.62981121 -0.09500017 248.48001152 -0.09374207 238.33020443 C-0.09155103 221.86458362 -0.08488956 205.39896774 -0.07543945 188.93334961 C-0.06626666 172.93432642 -0.05918518 156.93530458 -0.05493164 140.9362793 C-0.05466892 139.95083348 -0.05440619 138.96538766 -0.05413551 137.95007985 C-0.05283051 133.00660698 -0.0515668 128.0631341 -0.05032361 123.11966121 C-0.0399494 82.07976975 -0.02151024 41.03988743 0 0 Z " fill="#181818" transform="translate(2824,442)"/>
<path d="M0 0 C1.84375 0.015625 1.84375 0.015625 4 1 C5.05122138 3.62805344 5.81508388 6.02450622 6.5 8.75 C6.88398872 10.18267515 7.26945246 11.61495563 7.65625 13.046875 C7.86612549 13.83408936 8.07600098 14.62130371 8.29223633 15.43237305 C10.67872743 24.09009188 13.51506711 32.62208206 16.26953125 41.16796875 C17.15030711 43.9078552 18.03071007 46.64786108 18.91088867 49.38793945 C19.51855111 51.27477 20.12862879 53.16082421 20.7409668 55.04614258 C21.63231204 57.79294118 22.51429655 60.54259286 23.39453125 63.29296875 C23.80998955 64.56154976 23.80998955 64.56154976 24.23384094 65.85575867 C26.11378628 71.77242744 26.11378628 71.77242744 25 74 C22.68861847 74.73545684 20.43294957 75.35004994 18.078125 75.91015625 C17.38112488 76.08252304 16.68412476 76.25488983 15.96600342 76.43247986 C13.72914815 76.98353864 11.48966609 77.5229921 9.25 78.0625 C7.75502905 78.42960921 6.26023486 78.79743907 4.765625 79.16601562 C-6.70608382 81.98164021 -6.70608382 81.98164021 -12 83 C-19.04474397 84.48737397 -26.02112524 86.23255704 -33 88 C-33.56154785 88.13849365 -34.1230957 88.2769873 -34.70166016 88.41967773 C-37.96540691 89.24376166 -41.21843688 90.10799775 -44.47265625 90.96875 C-46.00999018 91.37466729 -47.54734462 91.78050689 -49.0847168 92.1862793 C-50.30038834 92.50718033 -50.30038834 92.50718033 -51.5406189 92.83456421 C-66.8531576 96.87500501 -82.17701708 100.86799754 -97.51855469 104.796875 C-98.93685508 105.16013233 -100.35514942 105.52341333 -101.7734375 105.88671875 C-102.46211914 106.06310883 -103.15080078 106.2394989 -103.86035156 106.42123413 C-108.56909941 107.62883918 -113.27382699 108.85123647 -117.9765625 110.08203125 C-119.21897705 110.4066333 -120.4613916 110.73123535 -121.74145508 111.06567383 C-124.04655668 111.66877931 -126.35112286 112.27393668 -128.6550293 112.8815918 C-133.42963325 114.12958987 -138.12345555 115.22214628 -143 116 C-144.49080695 116.46414294 -145.97169426 116.96208964 -147.4375 117.5 C-151.2796186 118.83245191 -154.95125797 119.52367741 -159 120 C-160.33917261 120.30903983 -161.67653254 120.62942911 -163 121 C-163 120.34 -163 119.68 -163 119 C-160.67861345 117.27039925 -158.35101392 115.65484467 -155.9375 114.0625 C-149.38612773 109.66659275 -142.98844203 105.11729987 -136.69897461 100.35375977 C-132.21236205 97 -132.21236205 97 -130 97 C-130 96.34 -130 95.68 -130 95 C-128.09625645 93.55036041 -126.12532841 92.18815677 -124.125 90.875 C-122.48917969 89.78832031 -122.48917969 89.78832031 -120.8203125 88.6796875 C-118 87 -118 87 -116 87 C-116 86.34 -116 85.68 -116 85 C-113.57719916 83.14456392 -111.14378893 81.40465698 -108.625 79.6875 C-107.05399327 78.59865722 -105.4837034 77.50877955 -103.9140625 76.41796875 C-103.09969727 75.85384277 -102.28533203 75.2897168 -101.44628906 74.70849609 C-97.59640881 72.01972743 -93.798766 69.26028136 -90 66.5 C-84.19494784 62.29230699 -78.36476994 58.12403822 -72.5 54 C-64.39263199 48.29676289 -56.35433901 42.50108268 -48.32763672 36.68505859 C-45.88818647 34.91905423 -43.4463785 33.15635337 -41.00390625 31.39453125 C-40.18720459 30.80534912 -39.37050293 30.21616699 -38.52905273 29.60913086 C-36.96489863 28.48084949 -35.40061512 27.35274748 -33.83618164 26.22485352 C-32.77645142 25.45999634 -32.77645142 25.45999634 -31.6953125 24.6796875 C-30.7674292 24.01042236 -30.7674292 24.01042236 -29.82080078 23.32763672 C-28.4906377 22.35774843 -27.18467048 21.3544284 -25.89404297 20.33251953 C-24 19 -24 19 -22 19 C-21.67 18.34 -21.34 17.68 -21 17 C-19.59125498 15.99987676 -18.14810373 15.0477382 -16.6875 14.125 C-14.02174683 12.40134343 -11.87955894 10.87955894 -9.625 8.625 C-9.08875 8.08875 -8.5525 7.5525 -8 7 C-7.01 7 -6.02 7 -5 7 C-5 6.34 -5 5.68 -5 5 C-4.01 5 -3.02 5 -2 5 C-2 4.34 -2 3.68 -2 3 C-1.34 3 -0.68 3 0 3 C0 2.01 0 1.02 0 0 Z " fill="#005127" transform="translate(601,511)"/>
<path d="M0 0 C24.09 0 48.18 0 73 0 C73 23.43 73 46.86 73 71 C48.91 71 24.82 71 0 71 C0 47.57 0 24.14 0 0 Z " fill="#181818" transform="translate(2824,317)"/>
</svg>
