<?xml version="1.0" encoding="UTF-8"?>
<svg id="Layer_1" xmlns="http://www.w3.org/2000/svg" version="1.1" viewBox="0 0 448 90.38">
  <!-- Generator: Adobe Illustrator 29.7.1, SVG Export Plug-In . SVG Version: 2.1.1 Build 8)  -->
  <defs>
    <style>
      .st0 {
        fill: #9d5d8f;
      }

      .st0, .st1, .st2 {
        fill-rule: evenodd;
      }

      .st1 {
        fill: #fff;
      }

      .st2 {
        fill: #010101;
      }
    </style>
  </defs>
  <path class="st0" d="M1.12,8.6C3.2,3.56,8.43,0,13.9.01,55.05,0,96.2.02,137.36,0c3.57-.08,7.14,1.25,9.78,3.66,3.02,2.7,4.73,6.73,4.65,10.77-.01,15.78.03,31.55-.02,47.32-.03,7.13-6.26,13.49-13.38,13.68-15.01.07-30.02,0-45.03.03,2.02,4.97,4.06,9.93,6.07,14.9-8.94-4.92-17.79-10.02-26.78-14.84-19.74-.17-39.5.02-59.25-.1-7.11-.2-13.32-6.56-13.36-13.67C-.02,46.33.04,30.88,0,15.44c-.06-2.32.16-4.69,1.11-6.84h0Z"/>
  <path class="st1" d="M61.49,9.75c2.28-2.42,6.61-1.64,8.29,1.1.91,1.44.99,3.36.26,4.89-3.17,6.24-4.5,13.19-5.72,20.02-1.44,8.91-2.64,17.93-2.18,26.97.13,2.3-.99,5.1-3.46,5.64-2.34.52-4.47-1.01-5.94-2.66-6.72-7.23-10.52-16.59-13.27-25.94-2.77,5.47-5.56,10.94-8.24,16.46-1.88,3.73-3.87,7.53-6.88,10.49-1.27,1.26-3.42,2.4-5.05,1.11-2.46-2.15-3.07-5.59-4.12-8.54-3.97-13.68-6.22-27.79-8.52-41.83-.53-2.34.45-5.14,2.79-6.08,1.89-.71,4.3-.81,5.91.58,1.12,1,1.43,2.55,1.64,3.96,1.62,10.87,3.54,21.7,6.17,32.37,4.49-8.52,8.97-17.06,13.45-25.59.67-1.25,1.46-2.5,2.69-3.28,1.64-1.05,4.07-.98,5.44.49,1.15,1.21,1.53,2.88,1.85,4.46,1.34,7.05,3.15,14.04,5.79,20.72,1.14-10.08,2.52-20.28,6.2-29.79.83-1.92,1.56-3.94,2.91-5.57h0ZM86.76,15.15c4.84-.59,10.06,1.02,13.36,4.69,2.69,3.04,4.2,6.99,4.7,10.98.82,6.83-.41,13.93-3.69,19.99-1.86,3.45-4.29,6.77-7.71,8.8-5.02,3.05-11.75,2.67-16.6-.54-3.87-2.65-6.05-7.17-6.93-11.68-1.78-10.19,1.26-21.56,8.99-28.68,2.22-1.91,4.98-3.2,7.89-3.56h0ZM87.77,25.64c-2.32.77-3.79,2.9-5.04,4.88-3.13,5.04-4.04,11.69-1.52,17.18.66,1.44,1.73,2.96,3.4,3.27,1.78.29,3.44-.73,4.74-1.84,2.86-2.45,4.29-6.14,4.98-9.76.78-4.12.38-8.69-2.04-12.22-.97-1.44-2.88-2.09-4.52-1.51h0ZM125.58,15.16c4.73-.59,9.86.87,13.17,4.4,2.96,3.2,4.57,7.47,5.02,11.77.7,6.6-.52,13.43-3.65,19.29-1.88,3.55-4.37,6.96-7.89,9.03-4.82,2.89-11.18,2.62-15.96-.22-3.23-1.94-5.37-5.26-6.61-8.74-3.38-10.66-.53-23.2,7.27-31.24,2.34-2.28,5.38-3.88,8.64-4.29h0ZM126.61,25.65c-2.54.91-4.06,3.33-5.38,5.53-2.86,5.04-3.56,11.52-.98,16.82.7,1.46,1.93,2.94,3.68,3.02,1.9.07,3.54-1.13,4.86-2.38,2.87-2.83,4.19-6.88,4.65-10.81.47-3.68-.14-7.63-2.28-10.72-.98-1.44-2.91-2.05-4.55-1.46h0Z"/>
  <path class="st2" d="M177.35,16.56c4.13-.91,8.47-.79,12.57.17.01,3.36,0,6.72,0,10.08-3.37-.81-7.14-1.57-10.41,0-3.91,1.91-6.04,6.32-6.08,10.55-.22,4.22,1.18,8.91,4.92,11.28,3.43,2.27,7.81,1.79,11.57.71,0,3.36,0,6.72,0,10.08-4.98,1.44-10.42,1.26-15.28-.54-5.83-2.19-10.48-7.23-12.26-13.2-1.34-4.53-1.52-9.44-.43-14.04,1.76-7.39,7.99-13.44,15.39-15.09h0ZM207.68,16.06c5.08-.57,10.6.21,14.71,3.47,3.96,3.07,5.93,8.02,6.62,12.86.7,5.3.54,10.81-1.1,15.93-1.39,4.35-4.31,8.36-8.51,10.34-4.27,2.01-9.25,2.15-13.79,1.12-4.21-.95-7.92-3.74-10.01-7.51-2.89-5.08-3.42-11.12-3.2-16.85.24-4.95,1.49-10.11,4.81-13.92,2.61-3.1,6.47-4.99,10.47-5.44h0ZM209.24,25.7c-2.18.55-3.41,2.7-3.96,4.73-1.08,4.01-.9,8.22-.62,12.33.26,2.21.5,4.66,2.08,6.39,2.1,2.38,6.31,2.06,8.23-.38,1.27-1.56,1.6-3.62,1.9-5.55.41-3.46.51-6.97-.01-10.41-.37-2.07-.94-4.25-2.46-5.79-1.3-1.36-3.37-1.77-5.15-1.31h0ZM408.38,16.73c4.31-1.13,8.88-.97,13.22-.04.1,3.37.02,6.74.05,10.12-3.3-.79-6.94-1.53-10.17-.11-3.71,1.69-5.96,5.68-6.25,9.65-.46,4.46.77,9.59,4.7,12.2,3.45,2.37,7.91,1.91,11.72.8-.05,3.39.1,6.77-.08,10.15-5.31,1.38-11.09,1.2-16.14-1-5.55-2.42-9.86-7.44-11.46-13.27-1.23-4.48-1.36-9.3-.23-13.81,1.77-7.06,7.64-12.85,14.65-14.69h0ZM235.7,17.06c4.8,0,9.6,0,14.41,0,1.74,7.79,3.39,15.6,4.83,23.44,1.37-7.88,3.22-15.67,5.08-23.44,4.92,0,9.85,0,14.77,0,1.91,14.09,3.81,28.19,5.71,42.28-3.77,0-7.53,0-11.3,0-1.05-9.65-1.97-19.32-3.08-28.96-2.29,9.67-4.69,19.31-7.02,28.96-2.57.01-5.14,0-7.71,0-2.46-9.67-4.89-19.35-7.37-29.01-.97,9.67-1.93,19.35-2.91,29.02-3.6,0-7.2,0-10.8,0,1.79-14.09,3.6-28.18,5.4-42.28h0ZM287.38,17.06c4.8,0,9.61,0,14.42,0,1.73,7.78,3.37,15.57,4.82,23.41,1.39-7.87,3.22-15.65,5.08-23.41h14.71c1.91,14.09,3.81,28.19,5.7,42.28-3.76.01-7.53,0-11.29.01-1.05-9.66-2.02-19.32-3.05-28.97-2.35,9.65-4.65,19.32-7,28.97-2.57,0-5.13,0-7.7,0-2.46-9.68-4.91-19.36-7.37-29.04-.99,9.68-1.94,19.36-2.92,29.04-3.6,0-7.2,0-10.81,0,1.8-14.09,3.6-28.19,5.4-42.28h0ZM335.33,17.2c7.71-.17,15.43-.02,23.15-.07.02,3-.01,6,.02,9-3.89.04-7.79,0-11.68.02,0,2.58,0,5.16,0,7.74,3.37,0,6.74,0,10.11,0,0,2.92,0,5.84,0,8.76-3.37,0-6.74,0-10.11,0,0,2.58,0,5.16,0,7.74,3.91,0,7.82,0,11.73,0,0,3,0,6,0,9.01-7.72,0-15.43,0-23.14,0-.05-14.07.08-28.14-.07-42.21h0ZM361.82,17.06c4.83.02,9.66-.04,14.49.03,4.55.14,9.37,1.28,12.77,4.5,3.07,2.85,4.13,7.51,2.94,11.48-.94,3.23-3.36,5.84-6.38,7.26,3.02,6.35,6.07,12.67,9.1,19.02-4.02,0-8.04,0-12.05,0-3.15-6.47-6.2-13-9.39-19.45-.08,6.48-.01,12.96-.04,19.44-3.81,0-7.62,0-11.43,0,0-14.09,0-28.18,0-42.28h0ZM373.19,25.19c-.01,3.36-.01,6.73,0,10.09,2.07-.14,4.31-.22,6.07-1.47,2.02-1.46,1.8-4.58.53-6.46-1.58-1.93-4.32-1.97-6.6-2.15h0ZM424.85,17.07c7.7-.02,15.4,0,23.1,0,0,3.01,0,6.01,0,9.02-3.91,0-7.82,0-11.72,0,0,2.57,0,5.15,0,7.73,3.37,0,6.74,0,10.11,0,0,2.92,0,5.85,0,8.77h-10.1c-.02,2.58-.01,5.16,0,7.74,3.92,0,7.85,0,11.77,0,0,3,0,6,0,9.01-7.71,0-15.43,0-23.14,0-.01-14.09,0-28.18,0-42.27h0Z"/>
</svg>