<?xml version="1.0" encoding="UTF-8"?>
<svg id="Layer_2" xmlns="http://www.w3.org/2000/svg" version="1.1" viewBox="0 0 805.95 139.91">
  <!-- Generator: Adobe Illustrator 29.8.1, SVG Export Plug-In . SVG Version: 2.1.1 Build 2)  -->
  <defs>
    <style>
      .st0 {
        fill: #46c8f5;
      }
    </style>
  </defs>
  <g id="Layer_1-2">
    <path class="st0" d="M0,111.92V0h139.9v111.92h-27.98V27.98h-27.98v83.94h-27.98V27.98h-27.98v83.94H0Z"/>
    <rect class="st0" x="83.94" y="111.92" width="27.99" height="27.99"/>
    <rect class="st0" x="27.98" y="111.92" width="27.99" height="27.99"/>
    <g>
      <path d="M277.87,28.04v83.88h-16.26v-31.46l2-41-5.77,25.33-12.25,47.12h-17.79l-12.49-47.95-5.77-24.62,2,41.12v31.46h-16.14V28.04h24.5l13.08,49.25,3.42,16.73,3.77-16.73,12.84-49.25s24.86,0,24.86,0Z"/>
      <path d="M343.01,94.48h-30.4l-5.66,17.44h-18.5l29.69-83.88h20.14l28.98,83.88h-18.61l-5.65-17.44h0ZM338.41,80.11l-3.42-10.37-7.07-24.15-7.19,24.15-3.42,10.37h21.1Z"/>
      <path d="M377.87,28.04h17.44v83.88h-17.44V28.04Z"/>
      <path d="M478.36,28.04v83.88h-17.08l-33.23-53.84v53.84h-17.43V28.04h17.08l33.22,53.84V28.04h17.44Z"/>
      <path d="M565.77,111.92h-11.31l-2.71-9.07c-4.24,6.36-12.25,10.96-23.44,10.96-21.21,0-38.17-16.61-38.17-43.83s16.73-43.71,39.11-43.71c20.73,0,33.11,10.72,35.93,28.27l-17.08,1.06c-1.65-8.72-7.66-14.37-17.91-14.37-14.61,0-22.62,11.66-22.62,28.75s8.13,29.57,22.62,29.57c10.37,0,18.73-6.13,20.5-18.38h-19.91v-14.61h34.99v45.36Z"/>
      <path d="M643.27,97.19v14.73h-62.2V28.04h61.03v14.73h-43.59v18.14h39.23v14.96h-39.23v21.33h44.77,0Z"/>
      <path d="M705.47,94.48h-30.4l-5.65,17.44h-18.5l29.69-83.88h20.14l28.98,83.88h-18.61l-5.65-17.44h0ZM700.87,80.11l-3.42-10.37-7.07-24.15-7.19,24.15-3.42,10.37h21.1Z"/>
      <path d="M802.42,85.29l3.42,26.63h-17.91l-2-21.56c-.71-7.19-3.65-10.96-12.72-10.96h-15.43v32.52h-17.44V28.04h39.11c20.03,0,26.51,11.19,26.51,23.09,0,10.72-5.3,17.67-16.02,20.5,9.78,2,11.78,8.13,12.49,13.67h-.01ZM774.5,65.27c10.49,0,14.37-5.3,14.37-11.78,0-6.13-3.42-10.84-12.01-10.84h-19.09v22.62h16.73Z"/>
    </g>
  </g>
</svg>